<?xml version="1.0" standalone="no"?>
<!DOCTYPE svg PUBLIC "-//W3C//DTD SVG 20010904//EN"
 "http://www.w3.org/TR/2001/REC-SVG-20010904/DTD/svg10.dtd">
<svg version="1.0" xmlns="http://www.w3.org/2000/svg"
 width="500.000000pt" height="500.000000pt" viewBox="0 0 500.000000 500.000000"
 preserveAspectRatio="xMidYMid meet">

<g transform="translate(0.000000,500.000000) scale(0.100000,-0.100000)"
fill="#000000" stroke="none">
<path d="M2450 4137 c-14 -7 -77 -43 -140 -79 -63 -37 -248 -143 -410 -236
-162 -93 -310 -183 -327 -199 l-33 -30 0 -536 0 -536 23 -25 c12 -14 175 -114
362 -222 592 -342 569 -331 625 -301 14 8 115 66 225 129 110 63 281 162 380
218 242 138 284 166 295 196 6 14 10 126 10 250 0 198 -2 225 -16 231 -17 6
-70 -19 -140 -66 l-39 -27 -5 -134 c-3 -74 -10 -144 -17 -155 -11 -20 -85 -64
-501 -304 -230 -133 -247 -138 -317 -98 -22 13 -175 101 -340 196 -165 95
-310 184 -322 197 l-23 25 0 422 c0 385 2 424 18 444 9 12 87 62 172 111 564
325 543 314 578 308 17 -2 114 -52 215 -109 100 -58 250 -144 332 -191 83 -47
162 -100 178 -116 l27 -30 0 -184 c0 -222 1 -224 87 -175 32 18 70 41 86 51
l27 19 0 204 c0 197 -1 205 -22 229 -13 14 -212 134 -443 267 -231 133 -425
245 -430 250 -21 16 -90 20 -115 6z"/>
<path d="M2235 3632 c-132 -76 -255 -146 -273 -157 -36 -22 -49 -53 -34 -82 6
-10 39 -34 74 -54 34 -20 151 -86 258 -148 107 -62 209 -115 227 -118 37 -6
35 -7 266 126 98 57 179 101 180 99 1 -1 1 -114 -1 -250 l-3 -246 -192 -112
c-118 -70 -206 -114 -229 -118 -33 -4 -54 5 -180 78 -79 46 -163 94 -188 107
-80 44 -80 45 -80 223 0 179 7 164 -100 223 -42 23 -70 33 -79 28 -10 -7 -13
-61 -12 -271 0 -144 3 -265 6 -270 3 -5 54 -36 113 -71 374 -216 489 -279 510
-279 13 0 37 7 55 16 95 49 554 319 565 332 18 23 18 711 0 734 -7 8 -51 36
-96 62 l-84 48 -202 -116 c-221 -126 -237 -131 -309 -95 -66 34 -147 88 -147
98 0 15 171 112 206 118 20 3 45 -2 73 -17 l42 -21 67 36 c76 42 102 62 102
81 0 17 -239 154 -270 154 -15 0 -130 -60 -265 -138z"/>
<path d="M3835 1721 c-42 -10 -72 -31 -84 -58 -15 -32 -14 -305 0 -337 21 -45
72 -61 189 -61 88 0 111 3 140 21 56 32 61 51 58 221 -3 143 -4 153 -26 176
-13 14 -43 30 -67 36 -48 12 -163 13 -210 2z m129 -117 c13 -5 16 -25 16 -110
0 -101 -1 -104 -24 -110 -13 -3 -34 -1 -45 6 -19 10 -21 20 -21 100 0 108 18
135 74 114z"/>
<path d="M901 1598 c1 -121 1 -125 42 -223 l42 -100 115 0 115 0 42 105 c42
103 43 108 43 223 l0 118 -77 -3 -78 -3 -6 -120 c-5 -111 -21 -185 -38 -185
-17 0 -34 82 -40 190 l-6 115 -77 3 -78 3 1 -123z"/>
<path d="M1402 1663 l3 -58 40 -5 40 -5 0 -100 0 -100 -40 -5 -40 -5 0 -55 0
-55 160 0 160 0 0 55 0 55 -37 3 -38 3 0 104 0 104 38 3 37 3 0 55 0 55 -163
3 -163 3 3 -58z"/>
<path d="M1840 1495 l0 -225 75 0 74 0 3 104 3 105 43 -51 c33 -39 42 -58 42
-87 0 -61 15 -73 90 -69 l65 3 0 220 0 220 -69 3 c-81 3 -86 -1 -86 -76 l0
-52 -52 57 c-66 74 -63 73 -130 73 l-58 0 0 -225z"/>
<path d="M2431 1707 c-6 -8 -27 -58 -46 -112 -34 -93 -35 -103 -33 -209 l3
-111 70 0 70 0 3 53 3 52 47 0 48 0 -4 -40 c-6 -59 8 -70 89 -70 l69 0 0 115
c0 107 -2 121 -36 212 -20 54 -41 104 -47 111 -14 18 -220 17 -236 -1z m137
-146 c18 -59 16 -66 -23 -67 -19 0 -35 2 -35 6 0 17 33 100 39 100 4 0 13 -17
19 -39z"/>
<path d="M2923 1705 c-57 -24 -68 -54 -71 -195 -6 -214 13 -235 213 -235 l130
0 0 55 0 55 -80 3 c-61 2 -83 7 -92 19 -18 23 -17 167 0 181 7 6 49 12 92 14
l80 3 3 58 3 57 -123 0 c-82 -1 -134 -5 -155 -15z"/>
<path d="M3363 1705 c-56 -24 -68 -55 -72 -189 -4 -142 7 -186 52 -218 29 -21
42 -23 162 -23 l130 0 0 55 0 55 -80 3 c-61 2 -83 7 -92 19 -18 23 -17 167 0
181 7 6 49 12 92 14 l80 3 3 58 3 57 -123 0 c-82 -1 -134 -5 -155 -15z"/>
</g>
</svg>
